<?xml version="1.0" encoding="UTF-8" standalone="no"?>
<!-- Created with Inkscape (http://www.inkscape.org/) -->

<svg
   version="1.1"
   id="svg1"
   width="1024"
   height="1024"
   viewBox="0 0 1024 1024"
   sodipodi:docname="logo_square_colour.svg"
   xml:space="preserve"
   inkscape:version="1.4.2 (ebf0e940d0, 2025-05-08)"
   xmlns:inkscape="http://www.inkscape.org/namespaces/inkscape"
   xmlns:sodipodi="http://sodipodi.sourceforge.net/DTD/sodipodi-0.dtd"
   xmlns:xlink="http://www.w3.org/1999/xlink"
   xmlns="http://www.w3.org/2000/svg"
   xmlns:svg="http://www.w3.org/2000/svg"><defs
     id="defs1"><linearGradient
       id="linearGradient4"
       inkscape:collect="always"><stop
         style="stop-color:#0da2a6;stop-opacity:1;"
         offset="0"
         id="stop4" /><stop
         style="stop-color:#2a9d0c;stop-opacity:1;"
         offset="1"
         id="stop5" /></linearGradient><linearGradient
       inkscape:collect="always"
       xlink:href="#linearGradient4"
       id="linearGradient5"
       x1="142.3317"
       y1="471.53268"
       x2="654.16028"
       y2="471.53268"
       gradientUnits="userSpaceOnUse" /></defs><sodipodi:namedview
     id="namedview1"
     pagecolor="#ffffff"
     bordercolor="#000000"
     borderopacity="0.25"
     inkscape:showpageshadow="2"
     inkscape:pageopacity="0.0"
     inkscape:pagecheckerboard="0"
     inkscape:deskcolor="#d1d1d1"
     inkscape:zoom="0.54319628"
     inkscape:cx="499.81933"
     inkscape:cy="598.31043"
     inkscape:window-width="1366"
     inkscape:window-height="699"
     inkscape:window-x="0"
     inkscape:window-y="0"
     inkscape:window-maximized="1"
     inkscape:current-layer="g4" /><g
     inkscape:groupmode="layer"
     inkscape:label="Image"
     id="g1"><g
       id="g4"
       transform="matrix(1.7347023,0,0,1.7347023,-178.83823,-305.96882)"><path
         style="fill:url(#linearGradient5);fill-opacity:1"
         d="m 142.3317,610.80095 140.44652,-182.86324 15.5528,15.0815 5.65557,-5.18427 -2.35649,21.20837 -14.13891,-12.25372 -13.19632,32.99079 17.43799,-18.38059 12.72502,13.66762 64.5677,-89.07514 -58.44084,44.30192 74.46493,-99.91497 105.57054,141.86041 6.59816,-5.65557 106.51313,139.97522 h 10.36853 l -23.09355,-40.53155 54.67045,41.00285 -54.67045,-91.90292 59.38342,45.71581 -94.7307,-123.00853 -38.64636,43.35933 19.79448,-36.28987 -35.81858,19.32318 54.19916,-55.61305 97.55849,129.13538 1.41389,74.93623 z"
         id="path1" /><path
         style="fill:#f5f5f5;fill-opacity:1"
         d="m 419.02978,397.62716 67.9848,97.57078 9.02267,-9.02268 63.15872,87.49896 -41.96592,-36.51036 36.51035,68.61429 -11.96029,0.20983 -99.8789,-75.53867 53.92621,8.81285 -64.62752,-50.9886 38.60865,5.45557 -29.58598,-45.3232 -35.88087,35.25138 31.47445,-51.19843 z"
         id="path2" /><path
         style="fill:#f5f5f5;fill-opacity:1"
         d="m 385.03738,591.9294 -17.83552,0.20983 12.37995,-22.87143 h -10.28165 l 12.7996,-20.35348 h -9.02267 l 14.26841,-24.13041 13.63893,24.34024 h -7.7637 l 11.54063,20.35348 -11.54063,0.62948 12.79961,22.03212 -16.36671,0.20983 v 14.05858 h -4.19659 z"
         id="path3" /><path
         style="fill:#f5f5f5;fill-opacity:1;stroke-width:0.769345"
         d="m 347.60233,597.53759 -15.49644,0.14295 10.75635,-15.5808 H 333.929 l 11.12097,-13.86548 h -7.83937 l 12.39714,-16.43845 11.85022,16.58139 h -6.74551 l 10.0271,13.86548 -10.0271,0.42882 11.12097,15.00904 -14.22025,0.14294 v 9.57718 h -3.64622 z"
         id="path3-9" /><path
         style="fill:#f5f5f5;fill-opacity:1;stroke-width:1.43465"
         d="m 309.60046,589.48477 -28.89719,0.26657 20.05804,-29.0545 h -16.65837 l 20.73797,-25.85583 h -14.61857 l 23.11773,-30.65382 22.09785,30.92037 h -12.57877 l 18.69816,25.85583 -18.69816,0.79965 20.73797,27.9883 -26.5174,0.26655 v 17.85917 h -6.79933 z"
         id="path3-9-9" /><path
         style="fill:#f5f5f5;fill-opacity:1;stroke-width:1.21926"
         d="m 254.37363,592.84337 -24.55882,0.22655 17.0467,-24.69251 h -14.15743 l 17.62456,-21.97407 h -12.42387 l 19.64704,-26.05172 18.78027,26.27826 h -10.69031 l 15.89099,21.97406 -15.89099,0.6796 17.62456,23.78638 -22.53631,0.22653 v 15.17795 h -5.77854 z"
         id="path3-9-9-2" /></g></g></svg>
